<svg version="1.2" xmlns="http://www.w3.org/2000/svg" viewBox="0 0 268 44" width="268" height="44">
	<title>logo</title>
	<style>
		.s0 { fill: #000000 } 
	</style>
	<g id="design">
		<g id="&lt;Group&gt;">
			<g id="&lt;Group&gt;">
				<path id="&lt;Path&gt;" class="s0" d="m212.7 35.4q-0.5 0.7-1.1 1.4c-2.5 3.2-5.8 5.1-9.8 5.8-5.5 0.9-10.6 0.1-15.4-2.8-5-3.2-8-7.8-9-13.7-0.7-4.3-0.4-8.5 1.2-12.6 2.1-5.2 5.9-8.8 11.1-10.7 6.6-2.5 13.3-2.4 19.8 0.4 5.1 2.3 8.3 6.2 9.5 11.7q0 0.2 0 0.3c0.1 0.2 0.1 0.3 0.1 0.5q-0.4 0-0.7 0-5.1 0-10.3 0c-0.4 0-0.6-0.1-0.9-0.5-1.3-2.2-3.3-3.4-5.8-3.8-3.5-0.6-6.8 0.1-9.5 2.6-1.9 1.7-2.8 3.8-3.1 6.3-0.4 3.1 0.1 6 2 8.5 1.9 2.5 4.4 3.8 7.5 4 2.4 0.2 4.7-0.2 6.7-1.5 1.6-1 2.6-2.5 3.1-4.4-3.2 0-6.3 0-9.5 0 0-2.2 0-4.4 0-6.6q10.4 0 20.8 0 0 10.6 0 21.3c-2.1 0-4.3 0-6.6 0q0-3.1 0-6.2 0 0-0.1 0z"/>
				<path id="&lt;Compound Path&gt;" fill-rule="evenodd" class="s0" d="m222.5 22.7c0.1-6 1.5-10.9 5.2-14.9 3.1-3.4 7-5.4 11.5-6.2 5.5-1 10.8-0.7 15.9 1.7 6.4 2.9 10 7.9 11.1 14.8 0.7 4.2 0.4 8.4-1.2 12.4-2.1 5.3-6 8.9-11.3 10.8-6.7 2.4-13.4 2.3-19.8-0.6-6.2-2.8-9.8-7.8-11-14.5-0.2-1.4-0.3-2.8-0.4-3.5zm11.7-1.6c0 3.3 0.5 5.5 1.9 7.4 2 2.9 4.8 4.2 8.3 4.3 4 0 7.2-1.6 9.2-5.2 1.3-2.3 1.6-4.9 1.2-7.5-0.6-3.9-2.6-6.7-6.2-8.1-3.9-1.5-7.6-1-10.8 1.6-2.6 2.1-3.6 5.1-3.6 7.5z"/>
				<path id="&lt;Path&gt;" class="s0" d="m82.6 28.9q5.3 0 10.5 0 0.1 0.4 0.1 0.7c0.4 1.6 1.4 2.5 2.8 3.1 2.3 1 4.6 1.1 7 1 1.3-0.1 2.6-0.4 3.9-0.7 0.6-0.2 1.2-0.5 1.7-0.9 1.5-1.3 1.4-3.5-0.3-4.6-1.3-0.9-2.8-1.1-4.3-1.4-3.8-0.6-7.5-1.3-11.2-2.1-1.4-0.3-2.8-0.9-4.1-1.6-3.4-1.7-5-4.7-5.1-8.5-0.2-5.4 2.5-9.2 7.9-11.2 3.4-1.3 6.9-1.6 10.5-1.6 3.2 0 6.3 0.3 9.4 1.2 3.2 1 5.9 2.8 7.4 5.9 1.1 2.1 1.4 4.4 1.4 6.8q-5.2 0-10.4 0c0 0-0.1 0-0.1 0-0.6-2.6-2.4-3.9-4.8-4.4-2.4-0.5-4.9-0.5-7.3 0.2q-0.7 0.2-1.3 0.5c-2 1.3-2 3.9 0 5.2 1.3 0.7 2.7 0.9 4.1 1.1 3.9 0.8 7.8 1.4 11.8 2.2 1.1 0.3 2.1 0.7 3.2 1.2 3.8 1.7 5.7 4.6 5.9 8.8 0.2 5.5-2.5 9.4-7.8 11.4-2.6 0.9-5.2 1.4-7.8 1.6-3.7 0.2-7.3 0.2-11-0.4-2-0.3-3.9-0.9-5.7-1.8-4-2-6-5.3-6.4-9.6 0-0.7 0-1.4 0-2.1z"/>
				<path id="&lt;Path&gt;" class="s0" d="m40.3 2.4c4 0 7.9 0 11.8 0q0 0.5 0 0.9 0 10.3 0 20.7c0 1.5 0.1 2.9 0.6 4.3q1.2 3.6 4.9 4.5 2.6 0.6 5.1 0c3-0.7 4.9-2.8 5.4-6.1q0.1-1.3 0.1-2.7 0-10.4 0-20.8 0-0.3 0-0.8c4 0 7.9 0 11.8 0q0 0.4 0 0.8 0 10.6 0 21.2c0 2.9-0.3 5.7-1.3 8.4-1.6 4.5-4.8 7.4-9.2 8.8-6.1 1.9-12.3 1.9-18.5 0-5.9-1.8-9.2-5.9-10.2-11.9-0.3-1.6-0.4-3.2-0.5-4.8 0-7.3 0-14.6 0-21.9 0-0.2 0-0.3 0-0.6z"/>
				<path id="&lt;Path&gt;" class="s0" d="m136.4 12.2c-4.8 0-9.5 0-14.3 0 0-3.3 0-6.5 0-9.8q20.1 0 40.3 0c0 3.3 0 6.5 0 9.8-4.8 0-9.5 0-14.3 0 0 9.8 0 19.6 0 29.4-3.9 0-7.8 0-11.7 0 0-9.8 0-19.5 0-29.4z"/>
				<path id="&lt;Path&gt;" class="s0" d="m25 2.4c3.9 0 7.8 0 11.7 0q0 0.3 0 0.5c0 7.7 0.1 15.3 0 23 0 2.7-0.4 5.3-1.3 7.9-1.5 4-4.3 6.8-8.4 8-5.2 1.6-10.5 1.6-15.8 0.1-5.2-1.5-8.1-5.1-9-10.3-0.3-1.6-0.3-3.3-0.5-4.9 4 0 7.9 0 11.8 0 0 0.6 0 1.1 0.1 1.7 0.5 3 2.6 4.7 5.8 4.5q4.9-0.3 5.5-5.3 0.1-1.3 0.1-2.6 0-10.9 0-21.8 0-0.3 0-0.8z"/>
			</g>
		</g>
	</g>
</svg>